<?xml version="1.0" encoding="utf-8"?>
<!-- Generator: Adobe Illustrator 17.0.0, SVG Export Plug-In . SVG Version: 6.00 Build 0)  -->
<!DOCTYPE svg PUBLIC "-//W3C//DTD SVG 1.1//EN" "http://www.w3.org/Graphics/SVG/1.1/DTD/svg11.dtd">
<svg version="1.1" id="Capa_1" xmlns="http://www.w3.org/2000/svg" xmlns:xlink="http://www.w3.org/1999/xlink" x="0px" y="0px"
	 width="200px" height="200px" viewBox="0 0 200 200" enable-background="new 0 0 200 200" xml:space="preserve">
<g>
	<path fill="#1D1D1B" d="M134.374,46.481c-3.109-2.588-6.522-0.404-9.679,1.049c-0.038-0.071-0.079-0.141-0.117-0.213
		c-0.03-0.056-0.155-0.328-0.254-0.54c0.227-0.62,0.168-1.328-0.408-1.817c-0.484-0.412-1.007-0.745-1.514-1.124
		c-1.613-1.207-3.829,0.121-4.363,1.775c-0.506,1.57-0.008,3.238,0.643,4.782c-1.069,0.528-2.132,1.066-3.196,1.603
		c-1.216,0.133-2.466,0.788-3.664,2.06c-3.204,3.405,0.813,8.284,4.849,6.285c1.93-0.955,3.876-1.878,5.814-2.816
		c0.384,0.593,0.748,1.201,1.155,1.775c1.492,2.105,3.263,4.744,6.171,4.628c3.388-0.135,4.934-3.786,2.734-6.304
		c-0.08-0.091-0.192-0.123-0.282-0.198c-0.098-0.119-0.172-0.257-0.279-0.37c-1.857-1.965,0.352,0.396-0.789-0.661
		c-0.661-0.613-1.268-1.299-1.821-1.97c2.552-0.948,5.367-2.113,5.878-4.615C135.486,48.68,135.333,47.279,134.374,46.481z"/>
	<path fill="#1D1D1B" d="M80.829,47.341c-0.131-0.046-0.28-0.097-0.48-0.166c-0.798-0.273-1.723-0.229-2.516,0.039
		c-0.976,0.329-2.039,0.49-3.081,0.651c0.142-0.436,0.257-0.88,0.407-1.313c0.159-0.456,0.327-0.906,0.542-1.335
		c0.088-0.174,0.845-1.05,0.237-0.428c3.609-3.692-2.661-8.722-5.65-4.36c-1.489,2.173-1.971,5.429-2.525,7.938
		c-0.022,0.098-0.041,0.199-0.062,0.297c-0.19,0.042-0.401,0.063-0.579,0.116c-0.36-0.098-0.766-0.089-1.179,0.086
		c-1.527,0.648-1.797,2.133-0.984,3.264c0.351,0.798,1.014,1.303,1.826,1.636c-0.187,1.485-0.292,2.975-0.209,4.449
		c0.205,3.693,5.282,3.581,5.651,0c0.137-1.335,0.41-2.673,0.727-4.002c0.446-0.03,0.864-0.059,1.221-0.073
		c2.639-0.108,7.069,0.425,8.477-2.418C83.44,50.135,82.701,47.667,80.829,47.341z"/>
	<path fill="#1D1D1B" d="M187.661,48.587c2.945-10.688-4.179-22.13-10.809-29.851c-6.691-7.792-16.966-15.582-27.737-15.385
		c-12.158,0.222-17.597,12.291-17.923,22.961c-7.262-3.502-15.222-5.748-23.33-6.628c-0.852-0.869-2.049-1.422-3.556-1.14
		c-1.16,0.217-2.326,0.45-3.495,0.697c-0.266-0.004-0.532-0.028-0.797-0.028c-0.753-0.001-1.314,0.254-1.779,0.598
		c-4.86,1.113-9.752,2.499-14.523,4.167C80.076,12.971,67.543,3.422,55.997,4.235c-10.958,0.772-19.73,9.194-25.483,17.888
		c-5.478,8.279-9.379,19.436-6.661,29.338c2.314,8.431,10.552,11.855,18.422,10.675c-1.442,7.563-0.675,16.215,3.085,26.092
		c2.376,6.241,5.989,11.546,10.481,15.973c-0.455-0.267-1.019-0.405-1.689-0.289c-8.513,1.48-14.391,6.118-19.199,13.313
		c-2.376,3.556-3.807,8.115-3.133,12.254c-3.372-0.167-6.709,0.209-9.912,1.281c-1.388,0.465-2.083,1.421-2.312,2.459
		c-12.416,2.599-11.075,18.233-6.062,29.086c7.103,15.375,22.979,33.893,41.97,31.09c9.422-1.391,15.712-6.056,18.833-12.257
		c0.137,0.14,0.239,0.294,0.418,0.417c12.697,8.706,31.47,8.212,45.073,1.089c1.141,1.559,2.49,3.075,4.178,4.508
		c20.976,17.808,72.727-22.951,61.644-42.831c1.215-0.424,2.172-2.019,1.495-3.402c-4.589-9.378-12.732-13.046-21.906-12.879
		c-0.555-2.089-2.061-4.098-3.187-5.778c-1.99-2.973-4.313-5.79-6.848-8.311c-1.831-1.821-4.386-4.311-7.029-5.032
		c12.555-10.991,17.333-28.275,13.568-45.346c5.628,0.373,12.42-1.694,16.853-3.898C183.064,57.456,186.344,53.365,187.661,48.587z
		 M43.394,57.759c-6.157-0.841-11.759-2.288-13.201-9.561c-1.502-7.577,2.625-16.261,6.563-22.427
		c4.21-6.592,11.109-13.355,19.241-14.309c10.79-1.265,15.514,7.955,21.45,14.908c-1.106,0.461-2.169,0.981-3.25,1.477
		c-2.978-6.156-10.772-9.914-17.341-9.445c-6.868,0.491-13.035,4.794-17.315,9.964c-3.865,4.669-6.868,10.979-5.568,17.151
		c1.15,5.458,6.107,7.765,11.116,8.112C44.467,54.974,43.856,56.328,43.394,57.759z M51.756,33.623
		c-1.77-0.916-3.456-1.992-5.087-3.145c1.611-1.56,3.484-2.911,5.503-3.904c1.516,1.35,3.061,2.666,4.561,4.037
		c1.472,1.346,3.145,3.014,4.943,4.407c-0.986,0.698-1.988,1.381-2.922,2.12c-0.038-0.043-0.032-0.096-0.076-0.138
		C56.894,35.324,53.928,34.747,51.756,33.623z M55.638,39.751c-1.275,1.163-2.488,2.371-3.621,3.632
		c-0.027-0.042-0.052-0.11-0.079-0.138c-0.372-0.392-0.807-0.715-1.283-0.968c-1.048-0.558-2.094-1.118-3.139-1.683
		c-2.006-1.085-4.033-2.131-6.067-3.162c0.904-1.83,2.112-3.513,3.361-4.996c1.429,1.26,2.91,2.46,4.467,3.575
		C50.96,37.215,53.344,39.094,55.638,39.751z M58.971,27.712c-1.062-0.775-2.1-1.58-3.142-2.381
		c0.345-0.068,0.677-0.195,1.027-0.235c5.435-0.621,8.009,2.657,11.366,5.76c-0.785,0.433-1.512,0.92-2.272,1.378
		C63.766,30.572,61.073,29.244,58.971,27.712z M47.41,49.387c-3.751-0.554-7.465-1.977-7.462-6.297
		c0.001-0.68,0.167-1.347,0.297-2.017c0.483,0.294,0.96,0.598,1.436,0.9c1.825,1.159,3.653,2.313,5.489,3.455
		c0.73,0.453,1.491,0.95,2.287,1.205C48.773,47.55,48.014,48.421,47.41,49.387z M55.451,186.248
		c-22.044,5.263-49.506-41.639-34.866-49.805c0.745,0.728,1.802,1.183,3.151,0.951c5.109-0.88,10.104-0.317,14.859,1.177
		c-1.293-0.063-2.58,0.971-2.884,2.206c-0.542,2.206,1.355,5.909,2.351,7.814c1.352,2.586,4.748,0.65,4.363-1.839
		c-0.031-0.203-0.09-0.402-0.129-0.604c0.152-0.229,0.323-0.451,0.365-0.723c0.312-2.005-0.409-4.905-2.228-6.191
		c7.663,2.842,14.636,8.046,20.26,13.81C71.955,164.584,74.41,181.722,55.451,186.248z M116.698,176.545
		c-12.189,6.028-27.107,6.967-39.338,0.555c-0.493-0.258-0.954-0.316-1.393-0.297c1.438-5.796,0.543-12.439-2.768-18.89
		c5.929-8.899,16.804-12.567,27.148-13.235c5.04-0.326,10.215,0.488,14.712,2.816c3.605,1.866,4.26,4.944,5.5,8.058
		C116.432,162.437,114.606,169.773,116.698,176.545z M179.037,139.339c-1.479,0.57-2.442,2.55-1.61,4.151
		c10.539,20.285-28.322,44.565-45.699,39.817c-3.611-0.987-5.877-2.685-7.172-4.811c0.123-1.112-0.318-2.238-1.11-3.002
		c-1.831-9.163,8.213-22.835,13.629-27.528C147.883,138.601,166.59,130.557,179.037,139.339z M152.546,119.369
		c1.7,2.192,3.256,4.462,4.657,6.857c0.489,0.837,0.87,1.722,1.264,2.59c-7.819,1.582-15.929,5.438-22.957,10.653
		c0.406-1.831-0.696-3.744-1.453-5.574c-1.177-2.842-2.417-6.188-4.782-8.275c-2.589-2.283-6.982,0.664-4.963,3.829
		c1.903,2.982,3.855,5.824,5.526,8.963c0.597,1.12,1.665,2.991,3.163,3c-2.632,2.154-5.026,4.514-7.192,6.975
		c-3.909-6.473-14.859-9.966-21.41-10.346c-12.224-0.708-27.407,4.558-33.763,15.655c-6.991-10.221-20.021-20.561-33.295-23.442
		c-0.62-9.582,9.665-18.971,18.035-21.908c1.802-0.632,1.979-2.461,1.123-3.576c19.576,18.608,54.962,21.195,78.361,12.171
		c3.942-1.52,7.462-3.497,10.594-5.812c0.012,0.059,0.044,0.193,0.21,0.585c0.27,0.636,1.207,1.227,1.697,1.688
		C149.269,115.203,150.942,117.3,152.546,119.369z M78.127,80.249c-7.594,7.245-4.461,20.349,6.422,21.791
		c4.574,0.606,8.921-1.845,11.448-5.554c0.407-0.597,0.739-1.232,1.05-1.875c1.747,3.227,4.356,5.952,7.716,7.492
		c3.827,1.753,8.115,1.57,11.686-0.688c3.894-2.462,7.622-8.717,6.135-13.306c-0.591-1.823-3.097-2.788-4.517-1.193
		c-3.56,3.999-3.445,12.045-10.915,9.522c-4.482-1.513-6.481-5.527-7.395-9.83c0.728-0.24,1.419-0.63,1.919-1.356
		c2.43-3.529,5.409-8.186,6.334-12.548c0.149-0.367,0.244-0.735,0.27-1.101c0.008-0.062,0.04-0.128,0.046-0.19
		c-0.017,0.041-0.034,0.081-0.05,0.121c0.014-0.29,0.017-0.579-0.047-0.854c14.334,3.583,27.875,18.233,28.625,31.455
		c0.096,1.687,1.353,2.778,2.732,2.983c-0.585,0.426-1.152,0.868-1.768,1.267c-22.533,14.588-56.256,8.215-75.675-8.694
		c1.132-11.856,13.681-20.083,25.492-24.526c0.104,0.29,0.242,0.569,0.397,0.85c0.721,1.313,1.55,2.557,2.386,3.798
		c1.114,1.656,2.315,3.266,3.488,4.89c-0.327,3.292-1.06,6.525-2.912,9.305c-1.63,2.446-3.489,3.079-5.785,2.864
		c-1.23-0.116-3.28-1.574-3.811-2.927c-1.01-2.572,0.036-5.893,1.278-9.05C83.727,80.219,79.95,78.51,78.127,80.249z
		 M143.607,101.819c8.774-19.423-29.809-40.049-44.79-39.203c-14.77,0.834-39.286,13.893-41.437,30.308
		c-13.392-16.316-7.34-41.612,8.845-53.709c11.137-8.324,26.922-10.333,40.143-13.191l0.001,0
		c18.697,2.573,34.831,11.981,44.149,29.213C159.127,71.157,156.097,89.927,143.607,101.819z M154.682,46.342
		c-0.067,0.06-0.093,0.128-0.147,0.19c-1.01-1.538-2.027-3.071-3.182-4.481c3.092-3.445,6.87-6.283,9.742-9.867
		c0.075-0.094,0.099-0.191,0.159-0.286c0.562,0.586,1.074,1.219,1.503,1.916c0.797,1.294,1.212,2.835,1.358,4.407
		C160.965,40.917,157.757,43.586,154.682,46.342z M152.934,34.656c-1.336,1.626-2.577,3.321-3.73,5.076
		c-1.064-1.152-2.089-2.342-3.244-3.402c1.016-1.398,2.432-2.725,3.403-3.744c1.116-1.172,2.336-2.268,3.635-3.233
		c0.588-0.436,1.136-0.864,1.522-1.387c1.124,0.33,2.193,0.809,3.221,1.357C155.948,30.841,154.411,32.858,152.934,34.656z
		 M146.27,30.2c-0.953,1.253-1.891,2.698-2.53,4.234c-0.801-0.663-1.583-1.349-2.419-1.969c1.128-2.987,3.412-4.71,7.085-5.092
		C147.535,28.426,146.79,29.516,146.27,30.2z M159.43,55.803c-0.24-0.62-0.537-1.199-0.798-1.804
		c3.844,0.746,7.784-1.951,10.049-5.387c3.546-5.379,2.945-12.818-0.022-18.249c-6.559-12.005-27.864-12.835-31.623-0.802
		c-0.609-0.376-1.201-0.777-1.823-1.133c0.036-0.091,0.094-0.156,0.119-0.257c1.952-7.783,4.489-18.144,14.414-17.586
		c8.261,0.465,15.882,7.127,21.153,12.918c4.962,5.449,10.727,14.013,9.625,21.834C179.034,55.925,167.175,54.004,159.43,55.803z"/>
	<path fill="#1D1D1B" d="M147.701,153.667c-3.531-1.343-5.782,0.581-7.215,3.412c-0.123,0.134-0.271,0.23-0.37,0.396
		c-0.507-0.065-1.052,0.061-1.54,0.525c-2.606,2.477-5.232,5.972-4.379,9.814c1.028,4.632,6.035,6.207,10.188,6.676
		c5.876,0.664,10.394-3.068,10.305-9.059C154.623,160.947,152.124,155.349,147.701,153.667z"/>
	<path fill="#1D1D1B" d="M161.22,142.647c-1.089-2.193-3.85-2.012-5.478-0.706c-0.946,0.759-1.232,2.22-1.388,3.584
		c-0.225,0.738-0.486,1.467-0.768,2.185c-1.762,4.492,6.1,6.831,7.311,2.015C161.457,147.498,162.305,144.833,161.22,142.647z"/>
	<path fill="#1D1D1B" d="M167.413,151.021c-0.492-0.604-0.991-1.075-1.642-1.521c-1.213-0.832-3.259-0.567-4.222,0.545
		c-1.596,1.843-1.104,3.49-0.002,5.37c0.287,0.489,0.704,0.811,1.166,1.028C165.887,158.75,170.414,154.705,167.413,151.021z"/>
	<path fill="#1D1D1B" d="M166.374,158.513c-1.464-0.167-2.96-0.055-4.432-0.036c-2.309-0.03-3.445,1.759-3.425,3.549
		c-0.01,0.863,0.261,1.714,0.792,2.373c-0.22,1.438,1.516,2.851,2.899,1.955c0.341-0.221,0.697-0.489,1.061-0.748
		c1.038,0.029,2.079,0.05,3.105-0.067C170.893,165.024,170.893,159.028,166.374,158.513z"/>
	<path fill="#1D1D1B" d="M55.074,155.223c-3.291-2.385-7.819-3.27-11.911-2.47c-9.105-0.405-16.687,7.542-11.358,16.509
		c0.725,1.221,1.655,2.388,2.664,3.517c0.294,0.575,0.588,1.151,0.961,1.674c1.474,2.063,3.48,3.232,5.645,3.748
		c4.333,2.571,9.31,4.004,13.913,3.259c4.506-0.729,7.057-4.958,7.437-9.187C63.028,165.556,60.56,159.199,55.074,155.223z
		 M56.008,172.499c-0.032-0.363-0.13-0.733-0.394-1.102c-0.16-0.224-0.391-0.38-0.59-0.57c1.595-4.561-1.557-8.646-5.816-11.223
		c1.22,0.408,2.334,0.99,3.171,1.67C55.144,163.515,56.966,168.706,56.008,172.499z"/>
	<g>
		<path fill="#1D1D1B" d="M25.616,149.432c-1.543-0.223-3.192-0.377-4.401,0.832c-1.219,1.219-1.281,3.437,0.027,4.632
			c0.482,0.44,0.949,0.766,1.596,0.916c0.516,0.139,1.031,0.139,1.547,0c0.183-0.079,0.314-0.135,0.425-0.183l0.002,0
			c0.004-0.001,0.006-0.004,0.009-0.005c0.322-0.137,0.313-0.129,0.016,0.007C28.149,155.641,29.253,149.959,25.616,149.432z"/>
		<path fill="#1D1D1B" d="M24.633,155.723c0.094-0.043,0.138-0.063,0.203-0.092c-0.008,0-0.016-0.002-0.025-0.002
			C24.746,155.653,24.702,155.703,24.633,155.723z"/>
	</g>
	<path fill="#1D1D1B" d="M33.663,144.122c-1.243-0.702-3.367-1.015-4.233-2.257c-2.209-3.167-7.418-0.218-5.231,3.058
		c0.424,0.844,1.048,1.578,1.739,2.261c0.963,1.163,1.986,2.274,3.119,3.283c1.099,0.979,2.355,0.796,3.206,0.111
		C35.169,150.448,36.586,145.77,33.663,144.122z"/>
	<path fill="#1D1D1B" d="M69.585,122.247c-3.301,0.478-4.747,5.417-5.617,8.077c-1.425,4.35-1.655,9.196-0.622,13.64
		c0.547,2.353,4.3,1.845,4.206-0.569c-0.144-3.672,0.411-7.081,1.593-10.554c0.893-2.623,3.205-4.54,3.958-7.075
		C73.787,123.465,71.623,121.952,69.585,122.247z"/>
</g>
</svg>
