<?xml version="1.0" encoding="iso-8859-1"?>
<!-- Generator: Adobe Illustrator 16.0.0, SVG Export Plug-In . SVG Version: 6.00 Build 0)  -->
<!DOCTYPE svg PUBLIC "-//W3C//DTD SVG 1.1//EN" "http://www.w3.org/Graphics/SVG/1.1/DTD/svg11.dtd">
<svg version="1.1" id="Layer_1" xmlns="http://www.w3.org/2000/svg" xmlns:xlink="http://www.w3.org/1999/xlink" x="0px" y="0px"
	 width="30.972px" height="22.557px" viewBox="0 0 30.972 22.557" style="enable-background:new 0 0 30.972 22.557;"
	 xml:space="preserve">
<g>
	<polygon points="25.793,8.621 16.445,16.009 21.624,22.557 24.088,16.069 30.972,15.169 	"/>
	<polygon points="0,11.57 6.489,14.036 7.388,20.917 13.937,15.739 6.549,6.391 	"/>
	<path d="M16.445,1.166c-2.901,0-5.262,2.359-5.262,5.261c0,2.901,2.361,5.261,5.262,5.261s5.262-2.36,5.262-5.261
		C21.707,3.525,19.346,1.166,16.445,1.166z M18.95,9.793l-2.506-1.318l-2.505,1.318l0.478-2.79l-2.026-1.976l2.802-0.408
		l1.251-2.539l1.252,2.539l2.802,0.408l-2.026,1.976L18.95,9.793z"/>
	<path d="M22.835,6.395C22.835,2.859,19.971,0,16.439,0c-3.527,0-6.39,2.859-6.39,6.395c0,3.527,2.863,6.387,6.39,6.387
		C19.971,12.781,22.835,9.922,22.835,6.395z M16.445,12.042c-3.098,0-5.617-2.519-5.617-5.616c0-3.097,2.52-5.617,5.617-5.617
		c3.097,0,5.616,2.52,5.616,5.617C22.061,9.523,19.542,12.042,16.445,12.042z"/>
    </g>
</svg>