<?xml version="1.0"?><svg width="270.452" height="264.693" xmlns="http://www.w3.org/2000/svg">
 <title>Ringing Phone</title>

 <g>
  <title>Layer 1</title>
  <path d="m155.039993,13.202c8.526001,0.436 16.127014,-1.075999 24.374008,2.539001c4.554993,1.995999 8.365997,5.352 12.063004,8.588c4.742996,4.153 2.927994,5.709999 9.774002,5.633999c8.914993,-0.098999 17.903992,-0.226 24.383987,7.110003c4.285004,4.850998 7.283005,14.920998 1.522003,19.297997c3.089996,2.335003 5.192001,6.480003 6.096008,10.156002c0.480988,1.958 -0.708008,6.755997 0,8.126999c0.626999,1.213997 5.309998,3.280998 6.600998,4.57c4.371002,4.368004 5.17099,9.982002 2.425995,15.461998c-0.362991,0.726006 6.332001,11.246002 6.209,15.010002c-0.190002,5.848999 -5.091995,9.664001 -6.095001,14.221001c-1.041,4.728996 0.891998,9.732994 -4.317001,13.204002c-3.442993,2.294998 -1.647003,9.302002 -4.571991,13.205002c-2.73201,3.644989 -9.216003,5.155991 -9.904007,8.632996c20.210999,9.748001 24.686005,33.031998 26.229004,53.033005c0.737991,9.557999 0.688004,19.054993 0.688004,28.638992c0,7.382004 -4.064011,9.863007 -11.175003,10.761002c5.035004,1.848999 8.485001,1.936005 12.696991,5.584015c-7.258987,4.281982 -18.934998,2.471985 -27.092987,3.099976c-10.317001,0.795013 -20.708008,0.456024 -31.055008,0.456024c-22.011002,0 -44.175003,2.737 -66.145996,4.023987c-19.386002,1.135986 -34.904999,-4.903992 -52.060005,-13.481003c-9.698997,-4.848999 -19.885998,-8.671997 -29.553997,-13.509003c-4.074001,-2.037994 -8.771,-3.79599 -11.966,-6.998001c-3.604,-3.610001 8.443001,-3.952988 9.648998,-4.062988c-9.411999,-5.173004 -12.348999,-12.742004 -10.556999,-23.488007c1.654999,-9.927002 4.107002,-20.175003 9.545002,-28.819992c5.503998,-8.751007 13.031998,-15.408005 22.218002,-19.997009c5.582993,-2.789001 22.728996,-6.270996 18.917,-15.554001c-11.759003,9.34201 -44.658005,23.973999 -52.067003,1.75c-3.194,-9.580002 -7.071001,-18.311996 -5.32,-28.664993c1.879,-11.116005 8.950998,-20.139999 17.050001,-27.618004c16.154999,-14.917 34.187,-28.68 52.271,-41.197998c17.625,-12.200001 38.338997,-24.168001 59.167992,-29.713001" fill="black" id="path3"/>
  <path d="m158.084,131.026001c1.910004,-3.620003 1.912003,-6.93 6.606003,-6.600998c6.972,0.487999 12.492004,9.735992 13.334,15.649002c0.354996,2.498001 1.496002,10.757996 -1.906998,10.757996c-3.455002,0 -6.651001,-0.643997 -10.158005,-0.253998c-7.835007,0.871002 -14.850006,2.08699 -22.093002,5.334c-5.449997,2.442993 -10.673996,7.377991 -16.758995,3.554993c-5.423004,-3.40799 -3.459999,-9.541 -1.017006,-14.72699c4.994003,-10.597 24.755005,-31.937004 31.994003,-13.714005" fill="#ffffff" id="path5"/>
  <path d="m157.074005,125.440002c3.130997,-2.900002 5.79599,-2.982002 9.138992,-5.078003c4.35701,-2.732002 6.798996,-9.090996 8.123001,-13.711998c0.486008,5.644997 -1.916,12.842995 -7.104004,15.742996c2.494003,0.977005 5.292007,2.778999 6.600998,4.573006c3.559006,-3.171005 10.778,-12.600006 8.634003,-17.777c-1.981003,-4.785004 -13.110992,-5.910004 -17.269989,-6.602005c0.123001,7.440002 -4.269012,18.477005 -12.695999,19.299004c1.691986,0.694 4.926987,3.903 4.572998,3.554001" fill="#ff0000" id="path7"/>
  <path d="m107.299004,255.960999c23.529991,3.356995 48.540001,0.179016 72.114998,-2.029999c12.026001,-1.126999 24.087006,-2.511002 36.065002,-4.065002c6.041,-0.783997 29.061996,-0.990997 30.722,-7.615997c2.435989,-9.716995 0.326996,-20.934998 -0.434006,-30.766006c-0.789993,-10.21199 -1.477997,-22.549988 -6.425003,-31.701996c-10.237,-18.938004 -31.916,-22.056992 -50.274002,-28.438995c-3.108994,-1.081009 -6.310989,-1.964996 -9.14299,-3.557007c-1.554001,6.111008 11.432999,5.368011 15.778992,6.998001c5.779999,2.167999 12.376999,10.292999 16.723007,10.777008c5.167999,0.575989 5.625992,-2.932007 9.139999,3.046997c2.494003,4.242996 4.919998,9.227005 0,12.188004c1.860992,2.638 1.518997,6.056 -3.046005,6.603989c7.190002,12.767014 -15.319,21.104004 -24.056,24.226013c-10.475998,3.741989 -24.778,4.007996 -35.72699,2.021988c-24.21701,-4.391998 -44.507004,-29.006989 -26.046005,-51.132996c-18.043999,1.475998 -10.146004,-19.587997 -4.568008,-27.932999c-8.10099,-0.917007 -2.87999,-13.905998 -1.777992,-18.285004c1.421997,-5.650993 -2.688004,-10.492996 -7.875,-7.615997c-4.934998,2.737999 -6.318001,13.708 -4.567001,18.283997c1.187004,3.100998 5.209999,6.324997 3.299004,10.154999c-1.555,3.117004 -1.349007,7.268005 -3.046005,10.665009c-4.128998,8.265991 -0.786995,14.834 7.872002,16.761002c-5.689003,1.968002 -11.304001,-1.825012 -12.191002,-7.619003c-0.875,-5.710999 3.004005,-10.968002 4.32,-16.251007c1.280006,-5.140991 -0.446999,-7.985001 -2.540001,-12.188995c-3.163994,-6.358002 1.551003,-16.949997 5.838005,-21.836998c-3.679001,-0.799004 -7.974998,-2.242004 -10.158005,0c-3.709999,3.809998 -3.326996,17.629997 -2.028,22.344994c-5.512993,1.289001 -8.670998,-0.690002 -13.208,2.541c-1.008995,0.718002 -5.334999,4.061005 -4.822998,5.07901c0.916,1.819992 1.446999,6.593994 0.253998,8.378998c-5.022995,7.511002 -16.192993,9.731003 -23.868996,13.966003c-9.59,5.291 -15.938999,12.261993 -20.313,22.090988c-3.714001,8.345001 -6.095001,18.320007 -6.095001,27.455002c0,10.214005 6.153999,14.787003 14.476002,19.777008c17.962997,10.769989 36.725998,18.830994 55.607002,27.677994" fill="#ff0000" id="path9"/>
  <path d="m105.271004,176.225998c-3.088005,10.264008 -7.533005,19.498001 -8.260002,30.416c-0.785004,11.781006 1.339996,22.352005 4.703995,33.574997c-5.224998,-9.697998 -8.687996,-19.853989 -7.992996,-31.056c0.654999,-10.54599 2.612,-25.839996 11.549004,-32.934998" fill="#ffffff" id="path11"/>
  <path d="m154.022003,216.345993c-1.992004,0 -6.290009,-0.842987 -8.123001,0c-3.229004,1.483002 -2.348999,3.686005 -4.063004,7.112c-3.233994,6.461014 -14.413002,14.011002 -21.076996,7.362015c-6.371002,-6.35701 -1.700005,-15.054001 6.895996,-16.129013c9.859009,-1.231995 17.796005,-0.332001 26.367004,1.654999" id="path13"/>
  <path d="m126.601997,217.871002c-4.661995,3.033005 -10.566994,9.673996 -1.524994,11.934998c2.853996,0.712997 11.169991,1.419006 11.169991,-3.300995c0,-3.395004 -2.584991,-5.688004 -5.582993,-6.095001c0.927002,2.32399 0.388,4.733994 -1.016998,6.093994c0.011002,-3.289001 -1.606003,-6.470993 -3.045006,-8.632996" fill="#ff0000" id="path15"/>
  <path d="m144.376999,228.028c2.957001,4.345001 -0.906006,10.259003 -6.095993,9.143005c2.697998,-1.570007 6.697998,-6.320007 6.095993,-9.143005" id="path17"/>
  <path d="m105.271004,151.341995c-3.217003,4.287003 -4.119003,9.300003 -1.524002,14.219009c-8.008003,-2.452011 -4.167999,-11.927002 1.524002,-14.219009" fill="#ffffff" id="path19"/>
  <path d="m160.623993,143.214996c0.751007,-5.962997 7.618011,-6.606995 7.618011,0c0,7.292999 -6.962997,5.022003 -7.618011,0" id="path21"/>
  <path d="m145.899002,131.026001c3.408005,-5.467003 10.459,-3.618004 7.362,2.539993c-3.417999,6.798004 -7.505005,1.694 -7.362,-2.539993" id="path23"/>
  <path d="m167.231003,152.863007c15.112,0 30.173996,2.278 40.628998,14.222992c-5.690002,3.684006 -13.893997,2.022995 -19.302002,5.078003c-2.757996,1.557999 -3.035995,0.694992 0,3.554001c3.154007,2.968994 8.606003,3.550003 12.473007,4.835999c2.500992,0.832001 12.411987,-0.059006 12.411987,2.020996c0,5.13501 -1.147995,8.660995 -3.440994,13.233002c-4.806,9.587997 -18.341995,11.656998 -27.679993,14.208008c-20.21701,5.522995 -42.527008,-0.783005 -52.281006,-20.303009c-11.571999,-23.158005 20.580002,-34.630997 37.190002,-36.849991" fill="#ffffff" id="path25"/>
  <path d="m192.110992,173.686996c8.160004,5.846008 20.087006,6.723999 29.456009,3.048004c-0.479004,-1.979996 -1.212006,-6.720993 -3.046005,-8.126999c-2.488998,-1.908997 -5.85199,0.600998 -9.395996,1.778c-5.320007,1.768005 -11.414993,3.291992 -17.014008,3.300995" fill="#ffba61" id="path27"/>
  <path d="m114.917,103.602997c1.219002,-5.675995 2.021004,-9.142998 7.620003,-9.142998c4.143997,0 11.08699,0.840004 9.901993,5.589005c-1.243988,4.983994 -1.065994,13.904999 2.794998,17.772995c2.187012,2.190002 7.727005,1.873001 10.665009,3.556c-4.367996,1.983002 -12.190002,5.611 -14.475006,10.157005c-0.891998,1.772995 -3.890999,-1.134003 -4.316994,-2.029999c-0.931,-1.958008 0.506996,-3.505005 0.506996,-5.588005c0,-5.362 4.048996,-10.259003 1.014999,-14.727997c-2.920998,-4.304001 -9.146996,-5.586006 -13.711998,-5.586006" fill="#ff0000" id="path29"/>
  <path d="m218.016006,48.751999c-9.144012,-1.542 -25.267014,0.424999 -22.095001,13.207001c3.520996,14.187004 25.776001,-5.265999 29.203995,5.584999c2.356003,7.459 -6.488007,3.522003 -11.078995,4.834c-4.251007,1.214005 -19.868011,7.871002 -8.473007,12.432999c3.770996,1.509003 6.386002,1.736 10.410004,1.016006c3.084,-0.552002 7.334991,-3.574005 10.156006,-3.557007c3.707993,0.023003 7.041992,3.630005 8.125,7.619003c-5.521011,-0.924004 -16.517014,-2.900002 -20.313004,2.792999c-3.07901,4.618004 -4.497009,8.471001 2.031998,11.428001c4.449997,2.015999 14.403,0.725998 18.535995,-2.031998c3.542007,-2.363007 4.292999,8.677994 1.777008,11.171997c-4.156006,-7.124001 -23.925003,-8.403 -25.391998,1.523003c-1.584,10.722 15.936996,10.156998 22.347992,10.156998c-1.201996,4.732002 -2.332001,8.952003 -7.367996,5.586998c-4.056,-2.710999 -12.520996,-6.282997 -17.014999,-2.539001c-11.158997,9.300003 11.964996,15.867996 18.791992,13.205002c1.466003,3.279999 -1.709,6.609009 -5.078003,6.600998c-3.163986,-0.007996 -6.608994,-4.181 -10.155991,-5.078003c-12.298996,-3.112991 -6.333008,8.763 2.031998,11.174011c-0.548996,3.968994 -10.222,-0.531998 -13.166,-1.637009c-5.063995,-1.899002 -10.893005,-2.712997 -15.781006,-4.963989c-5.511993,-2.53801 -4.146988,-4.077011 -5.078995,-9.653c-0.261993,-1.56601 -3.128998,-8.549011 -2.539993,-9.140015c3.05899,-3.069992 5.487991,-6.620995 6.347992,-10.917992c1.335999,-6.678001 2.459,-9.251999 -3.807999,-12.952003c-3.626999,-2.141998 -10.785004,-6.004997 -15.237,-4.570999c-5.442001,1.752998 -1.076004,4.922005 -4.063004,9.396004c-3.48999,5.225998 -5.423996,9.904999 -12.185989,9.904999c-3.221008,0 -11.519012,-3.563004 -13.205002,-6.096001c-4.96701,-7.459999 5.164993,-17.235001 -6.350998,-21.077003c-7.263008,-2.421997 -14.053009,0.692001 -17.013008,6.858002c-0.480995,1.002998 0.153999,3.125999 0.511002,4.062004c-5.260002,-0.885002 -7.886002,-2.978004 -9.011002,3.780998c-1.086998,6.531998 -3.738998,13.403999 -1.657997,20.089996c-1.862,-0.338997 -3.723999,-0.678993 -5.584999,-1.017998c3.209,-4.525002 5.167999,-12.252998 5.079994,-17.775002c-0.045998,-2.875 -0.617996,-7.055 -2.049995,-9.556c-2.543999,-4.445 -4.678001,-4.896996 -2.523003,-9.236c3.041,-6.121994 12.610001,-10.603996 18.030998,-14.218994c6.145004,-4.099007 12.68,-7.918007 19.554008,-10.666c2.190002,11.043999 15.23999,13.252998 24.886002,12.188995c11.901001,-1.312996 21.146988,-8.623001 28.590988,-17.549c3.516006,-4.216999 7.479004,-9.448997 9.242004,-14.700001c1.492004,-4.445 2.986008,-4.315998 8.380997,-4.315998c2.856003,0 7.508011,-0.112 9.649002,2.030998c1.837006,1.841003 4.059006,5.732002 2.540009,6.603001" fill="#ffffff" id="path31"/>
  <path d="m184.494995,125.947998c5.251007,4.208008 6.337997,13.182999 0.512009,17.266998c2.453003,-5.494003 0.625,-11.776993 -0.512009,-17.266998" id="path33"/>
  <path d="m192.110992,131.535995c3.769012,3.733002 2.313004,9.225998 -2.025986,11.679001c1.477997,-3.764999 2.360001,-8.429993 2.025986,-11.679001" id="path35"/>
  <path d="m219.026993,149.819c3.399002,1.104996 7.563004,0.557007 10.162003,-2.033005c2.744003,-2.733002 0.355011,-7.610992 3.553009,-8.632996c0.666992,10.985001 -8.068008,16.442993 -18.281998,12.188004c-2.151001,-0.895996 -7.707001,-3.404999 -5.078003,-5.587997c2.447998,-2.031006 9.427002,3.822998 9.644989,4.065994" fill="#ff0000" id="path37"/>
  <path d="m217.505997,154.389008c0.983002,0.044998 2.106003,0.700989 3.050003,1.014999c-0.076004,0.853989 -0.535995,2.340988 -1.018005,3.047989c-1.890991,-1.179993 -2.052002,-2.280991 -2.031998,-4.062988" fill="#ff0000" id="path39"/>
  <path d="m216.488998,51.800999c-1.481003,3.347 -10.311996,8.703003 -13.201004,5.586002c5.143005,6.752998 18.437012,-3.052002 18.279007,-10.158001c-0.225006,-10.194 -16.423004,-11.77 -23.865997,-8.632999c-0.544998,-1.776001 -1.514008,-3.462002 -2.53801,-5.080002c7.505005,-2.041998 21.388,-1.446999 27.167007,4.318001c7.811996,7.791 4.102005,15.778999 -3.298996,21.331001c-3.757004,2.818001 -19.626999,8.468002 -20.317001,-0.255001c-0.699997,-8.855999 15.824997,-5.978001 17.774994,-7.109001" fill="#ff0000" id="path41"/>
  <path d="m224.619003,59.417999c10.539993,6.523003 4.358002,20.957001 -6.350006,23.108002c-3.61499,0.725998 -14.940994,1.654999 -11.938004,-3.806999c2.399002,-4.362999 12.231003,-4.897003 16.251999,-4.064003c-2.647995,2.729004 -6.357986,4.259003 -10.155991,4.064003c8.699005,6.781998 22.225998,-10.214005 10.155991,-17.775002c0.716003,-0.278 1.041,-1.033001 2.036011,-1.526001" fill="#ff0000" id="path43"/>
  <path d="m229.186996,78.719002c2.953003,4 9.105011,6.075996 7.110001,12.186996c-1.903992,5.833 -11.843002,9.871002 -16.759003,6.093002c4.309006,0.245003 9.360001,-0.553001 11.681,-4.57c-4.121994,-0.556 -13.132996,-0.884003 -15.738998,3.556999c-4.608994,7.852997 9.210999,5.714996 13.201004,4.57c5.345001,-1.533997 11.811005,-6.542 11.677994,-12.696999c-0.120987,-5.605003 -5.414993,-8.285004 -9.645996,-10.666c-0.192001,0.350998 -1.931992,2.416 -1.526001,1.526001" fill="#ff0000" id="path45"/>
  <path d="m239.343002,98.014999c13.33699,7.601997 0.240997,26.105003 -12.41301,24.001999c-1.716995,-0.285995 -17.751999,-5.082001 -10.944992,-8.512001c6.378006,-3.213997 13.076996,-2.999001 18.791,1.776001c-2.725006,2.608002 -9.785004,1.093002 -12.697006,-1.014c1.359009,10.644005 30.979004,1.447998 15.238007,-14.222c0.774002,-0.359001 1.677002,-1.807999 2.026001,-2.029999" fill="#ff0000" id="path47"/>
  <path d="m235.279999,123.917c3.389008,9.607002 -15.550995,19.189003 -20.819992,9.648994c2.765991,1.296005 7.107986,1.550003 10.158997,0.509003c-3.860001,-3.945999 -7.876007,-4.569992 -12.699005,-4.569992c-4.709991,0 -0.026001,8.007996 2.028,9.139999c9.007996,4.96199 30.727997,-3.156006 23.872009,-15.744003c-0.87001,0.763 -2.516006,1 -2.540009,1.015999" fill="#ff0000" id="path49"/>
  <path d="m50.929001,83.289001c18.414001,-14.321999 36.548996,-28.627003 56.120003,-41.391003c17.713997,-11.551998 37.816002,-26.963999 60.182991,-24.123999c9.938004,1.261999 21.376999,6.751999 25.391998,16.759001c3.971008,9.896999 -4.019989,19.705997 -10.667999,26.41c-7.455994,7.518997 -17.459991,13.686996 -28.437988,13.201996c-4.639008,-0.204994 -10.167007,-2.036995 -13.458008,-5.331993c-4.759995,-4.766006 0.809998,-8.229004 5.32901,-10.411003c4.048996,-1.955002 9.195999,-3.067001 13.206985,-0.507999c-9.622986,-10.235001 -27.049988,3.594997 -36.245995,8.539997c-12.184998,6.553001 -30.499001,15.987999 -33.836998,30.564003c3.903999,-6.161003 7.710999,0.418999 8.884003,5.080002c1.584,6.292 1.433998,14.147995 -2.811005,19.448997c-10.078995,12.586006 -21.252998,20.525002 -37.092999,24.489006c-17.056,4.26799 -24.543999,-8.471008 -26.117001,-24.131004c-0.743999,-7.401001 0.529001,-15.653999 4.729,-21.953003c4.146999,-6.219002 11.032001,-10.838997 14.824001,-16.642998" fill="#ff0000" id="path51"/>
  <path d="m173.832001,24.375999c12.656006,4.767 19.710007,19.813 7.106995,28.441002c2.876999,-11.613003 3.440002,-20.309002 -7.106995,-28.441002" fill="#ffffff" id="path53"/>
  <path d="m85.460999,100.556c11.301003,11.283997 6.120003,19.479004 -5.077995,28.438995c5.595993,-6.830994 10.988998,-20.744995 5.077995,-28.438995" fill="#ffffff" id="path55"/>
  <path d="m107.299004,50.785999c8.107994,-4.829998 16.043999,-10.007 24.359001,-14.484001c7.194,-3.872997 17.384995,-10.980999 25.92099,-9.894999c-8.335999,5.154001 -17.612,9.059 -26.388992,13.449999c-4.984001,2.494003 -19.736,11.764 -23.890999,10.929001" id="path57"/>
  <path d="m139.804993,0c-20.97699,10.479 -42.466995,19.416 -60.905991,34.306c-20.235001,16.341999 -36.147003,34.693001 -50.825003,56.092003c15.073,-48.929001 66.894003,-75.115003 111.730993,-90.398003" id="path59"/>
  <path d="m107.299004,4.57c-14.595001,7.966 -30.574005,13.052999 -43.006004,24.704c-13.239998,12.408998 -22.669998,25.401999 -32.155998,40.809999c6.868,-16.479 14.879997,-30.981998 28.474998,-42.878c6.919998,-6.056 14.459999,-11.098999 22.821999,-15.016c7.162003,-3.356999 17.898003,-3.844999 23.865005,-7.619999" id="path61"/>
  <path d="m11.822,119.347c0.837001,15.238007 -0.992,26.667007 9.14,39.612c-7.066,-4.462006 -10.564,-11.005005 -12.344,-18.996994c-1.885,-8.469009 1.235,-14.123009 3.204,-20.615005" id="path63"/>
  <path d="m0.648,143.723999c3.295,8.238007 6.654,15.557999 15.236,19.298004c-9.61,0.643997 -18.374,-9.62001 -15.236,-19.298004" id="path65"/>
  <path d="m27.058001,196.539993c-0.174,7.756012 -4.083,20.025009 3.049999,25.902008c-13.016001,-3.499008 -5.773001,-19.837006 -3.049999,-25.902008" id="path67"/>
  <path d="m245.947006,156.927994c5.434998,5.106003 9.981995,7.146011 12.809006,14.690002c2.737,7.307999 1.036987,15.404007 -0.111023,22.891006c-1.177979,-15.225998 -4.140991,-25.362 -12.697983,-37.581009" id="path69"/>
  <path d="m265.752991,162.516006c3.854004,6.853989 1.027008,19.692993 -1.018005,26.914993c4.512024,-7.906006 9.715027,-19.959 1.018005,-26.914993" id="path71"/>
  <path d="m220.046005,22.344999c7.554001,0 14.722,0.378 19.82399,6.751001c2.380005,2.973999 3.028,6.755001 3.028,10.552998c0,4.422001 4.055008,5.035 7.113007,8.088001c6.530991,6.521 5.188004,12.999001 2.776001,21.044998c-0.057007,0.188004 6.262985,5.235001 6.869003,7.903c0.615997,2.709999 -0.239014,6.233002 -1.52301,8.635002c-0.737,-2.886002 -0.462006,-6.504997 -1.773987,-9.141998c-1.410004,-2.834 -3.950012,-2.679001 -5.331009,-4.570999c-2.300995,-3.151001 -0.639999,-4.268005 0.130997,-8.915001c0.630005,-3.796001 -0.18399,-7.628002 -2.164993,-10.892002c-2.150009,-3.542 -4.880997,-4.98 -8.505997,-6.792999c-1.149002,-0.575001 -1.212006,-8.333 -1.521011,-10.190998c-1.621994,-9.777002 -12.39299,-9.468002 -18.92099,-12.471003" id="path73"/>
  <path d="m254.072006,36.055c1.770996,1.703999 3.748001,4.053001 4.061996,6.604c0.229004,1.856998 -1.82901,5.888 -0.761017,6.602001c7.359009,4.919998 10.026001,12.879997 5.333008,20.822998c5.979004,-6.370998 5.188995,-16.880001 -2.283997,-21.838001c-0.575989,-0.382 -0.229004,-5.854 -1.270996,-7.616997c-1.303009,-2.202003 -3.362,-3.113003 -5.078995,-4.574001" id="path75"/>
  <path d="m155.544998,162.516006c0.645996,-9.337006 19.091003,-9.494003 19.303009,0c0.219986,9.922989 -19.73201,9.628998 -19.303009,0" id="path77"/>
  <path d="m157.578995,162.516006c1.506012,-6.602005 15.236008,-7.394012 15.236008,0.506989c0,7.522003 -14.057007,6.13501 -15.236008,-0.506989" fill="#ffbf00" id="path79"/>
  <path d="m135.742004,173.686996c-1.445999,-9.737 17.218002,-12.966995 18.791992,-3.554001c1.511002,9.033005 -15.58699,12.428009 -18.791992,3.554001" id="path81"/>
  <path d="m137.266006,171.656006c1.582993,-6.979004 15.233994,-6.914001 15.233994,0.507996c0,8.442993 -13.440002,4.574997 -15.233994,-0.507996" fill="#ffbf00" id="path83"/>
  <path d="m134.727005,189.938995c-1.098999,-9.23999 17.431992,-13.082993 19.29599,-3.556c1.860001,9.51001 -16.544998,12.684006 -19.29599,3.556" id="path85"/>
  <path d="m136.759003,189.431c-0.251999,-6.837997 13.716003,-9.832993 14.724991,-2.539001c1.009003,7.305008 -12.452988,9.460007 -14.724991,2.539001" fill="#ffbf00" id="path87"/>
  <path d="m149.960999,200.097c1.783005,-8.876007 20.082001,-9.337997 19.807999,0.509003c-0.279999,10.024994 -18.405991,8.781998 -19.807999,-0.509003" id="path89"/>
  <path d="m151.994995,200.097c2.014999,-6.339996 16.369003,-7.154999 15.236008,1.013c-0.983002,7.085999 -14.449005,5.604996 -15.236008,-1.013" fill="#ffbf00" id="path91"/>
  <path d="m172.815002,199.078995c1.044998,-9.272995 20.070999,-9.022995 19.807999,0.508011c-0.266998,9.658997 -19.139008,9.240997 -19.807999,-0.508011" id="path93"/>
  <path d="m174.848007,199.078995c2.023987,-6.334 16.378998,-7.154999 15.237,1.018005c-0.990005,7.091003 -14.443008,5.593002 -15.237,-1.018005" fill="#ffbf00" id="path95"/>
  <path d="m191.604996,189.431c0.396011,-9.158005 18.847,-9.276001 19.300003,0c0.484009,9.893997 -19.744003,9.660004 -19.300003,0" id="path97"/>
  <path d="m193.636993,189.431c1.824005,-6.246994 15.233002,-7.598007 15.233002,0.507996c0,7.703003 -14.039993,6.179001 -15.233002,-0.507996" fill="#ffbf00" id="path99"/>
  <path d="m177.893997,159.466995c4.126999,-7.533997 21.520996,-2.243988 18.279007,6.602005c-3.376999,9.214005 -19.615997,2.302994 -18.279007,-6.602005" id="path101"/>
  <path d="m179.925995,160.481995c3.516998,-4.955002 15.959,-2.602997 13.710999,4.572006c-2.452988,7.828003 -14.218994,0.341995 -13.710999,-4.572006" fill="#ffbf00" id="path103"/>
  <path d="m166.212997,171.656006c3.005997,0 12.186996,-0.525009 12.186996,4.315994c0,4.876007 -2.119995,9.395996 -8.123001,9.395996c-3.939987,0 -10.15799,-0.451996 -10.15799,-5.58699c-0.001007,-5.756012 4.041,-5.831009 6.093994,-8.125" id="path105"/>
  <path d="m170.274002,173.686996c5.377991,0.553009 9.276993,6.647003 2.541,8.63501c-7.057999,2.080994 -9.084,-7.049011 -2.541,-8.63501" fill="#ffba61" id="path107"/>
  <path d="m165.701996,174.195007c-1.916992,3.529999 -3.513992,8.500992 2.033997,9.647995c-6.931,0.813995 -7.026993,-7.158997 -2.033997,-9.647995" fill="#ffba61" id="path109"/>
 </g>
</svg>